<svg width="31" height="30" viewBox="0 0 31 30" fill="none" xmlns="http://www.w3.org/2000/svg">
<path d="M18.6719 17.0235V28.4056C18.6719 28.4932 18.5672 28.5385 18.5034 28.4785L13.8318 24.0882C13.7391 24.0011 13.617 23.9526 13.4897 23.9526H4.17188C1.63437 23.9526 1 22.0789 1 21.1421V13.1789C1 10.9305 3.11458 10.3684 4.17188 10.3684H15.5C15.778 10.3684 16.0342 10.399 16.2701 10.4543C18.7614 11.0388 18.6719 14.4645 18.6719 17.0235Z" stroke="#1BA3E2" stroke-width="1.5"/>
<path d="M12.3286 7.65508V19.0372C12.3286 19.1248 12.4333 19.17 12.4971 19.1101L17.1687 14.7198C17.2614 14.6327 17.3835 14.5842 17.5108 14.5842H26.8286C29.3661 14.5842 30.0005 12.7105 30.0005 11.7737V3.81052C30.0005 1.5621 27.8859 1 26.8286 1H15.5005C15.2225 1 14.9663 1.0306 14.7304 1.08594C12.2391 1.67043 12.3286 5.09614 12.3286 7.65508Z" fill="#E8F3F9" stroke="#1BA3E2" stroke-width="1.5"/>
<ellipse cx="18.2183" cy="7.55793" rx="0.90625" ry="0.936841" fill="#009DE0"/>
<ellipse cx="21.8438" cy="7.55793" rx="0.90625" ry="0.936841" fill="#009DE0"/>
<ellipse cx="25.4688" cy="7.55793" rx="0.90625" ry="0.936841" fill="#009DE0"/>
</svg>
