<svg width="26" height="29" viewBox="0 0 26 29" fill="none" xmlns="http://www.w3.org/2000/svg">
<path d="M8.87842 16.7017C8.87842 16.2874 8.54263 15.9517 8.12842 15.9517C7.7142 15.9517 7.37842 16.2874 7.37842 16.7017H8.87842ZM7.37842 16.7017V22.1052H8.87842V16.7017H7.37842Z" fill="#1BA3E2"/>
<path d="M1 28C1.1584 24.0701 3.82076 15.228 13.3549 15.228C22.8586 15.228 25.2346 23.4152 25.2346 28" stroke="#1BA3E2" stroke-width="1.5" stroke-linecap="round"/>
<rect x="8.40283" y="0.75" width="9.90451" height="14.2193" rx="4.95226" stroke="#1BA3E2" stroke-width="1.5"/>
<path d="M9.75432 24.07C9.75432 25.036 9.00309 25.7762 8.12838 25.7762C7.25367 25.7762 6.50244 25.036 6.50244 24.07C6.50244 23.1041 7.25367 22.3639 8.12838 22.3639C9.00309 22.3639 9.75432 23.1041 9.75432 24.07Z" stroke="#1BA3E2" stroke-width="1.5"/>
<path d="M18.1069 20.6315V24.5613" stroke="#1BA3E2" stroke-width="1.5" stroke-linecap="round"/>
<path d="M16.2061 22.5964H20.0076" stroke="#1BA3E2" stroke-width="1.5" stroke-linecap="round"/>
</svg>
