<svg width="26" height="28" viewBox="0 0 26 28" fill="none" xmlns="http://www.w3.org/2000/svg">
<path d="M6.69365 10.8097C6.69365 11.9192 10.3465 17.0372 12.4879 19.6753C12.7233 19.9653 13.0775 20.1289 13.4509 20.1289C13.6861 20.1289 13.9166 20.0633 14.1165 19.9393L15.3119 19.1978C15.8589 18.8586 16.544 18.7905 17.0966 19.1203C18.4631 19.936 19.8137 21.3021 19.5044 22.5814C19.1918 23.8737 18.429 25.3656 17.3747 26.3998C16.9406 26.8256 16.332 27.0207 15.7247 26.991C14.3189 26.9222 12.2601 26.3738 8.59153 22.5814C2.42341 16.2051 1 6.39532 1 4.92386C1 4.5107 1.07793 4.16602 1.19276 3.88558C1.49548 3.14627 2.36584 2.96191 3.16473 2.96191H5.93921C6.9209 2.96191 7.75746 3.67441 7.91372 4.64358L8.42151 7.79316C8.52295 8.42238 8.20878 9.04559 7.64259 9.33824C6.69365 9.82873 6.69365 10.3192 6.69365 10.8097Z" stroke="#1BA3E2" stroke-width="1.5"/>
<path d="M14.2847 5.41431C16.3407 5.90479 20.263 8.25913 19.5038 13.7526" stroke="#1BA3E2" stroke-width="1.5" stroke-linecap="round"/>
<path d="M15.2334 1C20.927 1 25.6718 7.86681 24.2483 13.7527" stroke="#1BA3E2" stroke-width="1.5" stroke-linecap="round"/>
</svg>
